<svg 
  xmlns="http://www.w3.org/2000/svg" width="510" height="510" viewBox="0 0 510 510">
  <path d="M188.7 216.75L311.1 5.1C293.25 2.55 272.85 0 255 0 193.8 0 137.7 20.4 94.35 58.65L188.7 219.3v-2.55zm308.55-38.25c-22.95-73.95-79.05-135.15-153-160.65l-91.8 160.65h244.8zm7.65 25.5H313.65l7.65 12.75L443.7 428.4C484.5 382.5 510 321.3 510 255c0-17.85-2.55-35.7-5.1-51zm-339.15 51L66.3 81.6C25.5 127.5 0 188.7 0 255c0 17.85 2.55 35.7 5.1 51h191.25l-30.6-51zm-153 76.5c22.95 73.95 79.05 135.15 153 160.65L260.1 331.5H12.75zm285.6 0L198.9 504.9c17.85 5.1 35.7 5.1 56.1 5.1 61.2 0 117.3-20.4 160.65-58.65L321.3 290.7l-22.95 40.8z"/>
</svg>